<svg width="609" height="609" xmlns="http://www.w3.org/2000/svg" xmlns:xlink="http://www.w3.org/1999/xlink" xml:space="preserve" overflow="hidden"><g transform="translate(-613 -263)"><path d="M1155.39 742.588 1076.09 663.291C1065.31 652.506 1050.72 648.7 1036.76 651.238L1008.85 623.325C1033.59 591.606 1048.18 551.006 1048.18 507.869 1048.18 403.197 962.541 317.556 857.869 317.556 753.197 317.556 667.556 403.197 667.556 507.869 667.556 612.541 753.197 698.181 857.869 698.181 901.006 698.181 940.972 683.591 973.325 658.85L1001.24 686.763C998.7 700.719 1002.51 715.309 1013.29 726.094L1092.59 805.391C1101.47 814.272 1112.89 818.712 1124.31 818.712 1135.73 818.712 1147.14 814.272 1156.02 805.391 1172.52 787.628 1172.52 759.716 1155.39 742.588ZM857.234 659.484C773.497 659.484 704.984 590.972 704.984 507.234 704.984 423.497 773.497 354.984 857.234 354.984 940.972 354.984 1009.48 423.497 1009.48 507.234 1009.48 590.972 940.972 659.484 857.234 659.484Z" fill="#FF7C00"/></g></svg>