<svg width="96" height="96" xmlns="http://www.w3.org/2000/svg" xmlns:xlink="http://www.w3.org/1999/xlink" xml:space="preserve" overflow="hidden"><g transform="translate(349 -307)"><path d="M-301.5 330C-306.194 330-310 326.194-310 321.5-310 316.806-306.194 313-301.5 313-296.806 313-293 316.806-293 321.5-293 326.194-296.806 330-301.5 330Z" fill="#A8A39D"/><path d="M-301.5 363C-306.194 363-310 359.194-310 354.5-310 349.806-306.194 346-301.5 346-296.806 346-293 349.806-293 354.5-293 359.194-296.806 363-301.5 363Z" fill="#A8A39D"/><path d="M-301.5 396C-306.194 396-310 392.194-310 387.5-310 382.806-306.194 379-301.5 379-296.806 379-293 382.806-293 387.5-293 392.194-296.806 396-301.5 396Z" fill="#A8A39D"/></g></svg>